<svg width="32" height="32" viewBox="0 0 32 32" fill="none" xmlns="http://www.w3.org/2000/svg">
<path d="M14.6667 26.6666C14.2889 26.6666 13.9725 26.5386 13.7174 26.2826C13.4614 26.0275 13.3334 25.7111 13.3334 25.3333V17.3333L5.60004 7.46665C5.26671 7.0222 5.21693 6.55554 5.45071 6.06665C5.6836 5.57776 6.08893 5.33331 6.66671 5.33331H25.3334C25.9112 5.33331 26.3169 5.57776 26.5507 6.06665C26.7836 6.55554 26.7334 7.0222 26.4 7.46665L18.6667 17.3333V25.3333C18.6667 25.7111 18.5392 26.0275 18.284 26.2826C18.028 26.5386 17.7112 26.6666 17.3334 26.6666H14.6667ZM16 16.4L22.6 7.99998H9.40004L16 16.4Z" fill="#222020" fill-opacity="0.75"/>
</svg>
