<svg xmlns="http://www.w3.org/2000/svg" version="1.1" xmlns:xlink="http://www.w3.org/1999/xlink" xmlns:svgjs="http://svgjs.dev/svgjs" width="1000" height="707" viewBox="0 0 1000 707"><g transform="matrix(1,0,0,1,-0.6060606060606233,0)"><svg viewBox="0 0 396 280" data-background-color="#f8f8f8" preserveAspectRatio="xMidYMid meet" height="707" width="1000" xmlns="http://www.w3.org/2000/svg" xmlns:xlink="http://www.w3.org/1999/xlink"><g id="tight-bounds" transform="matrix(1,0,0,1,0.2400000000000091,0)"><svg viewBox="0 0 395.52 280" height="280" width="395.52"><g><svg viewBox="0 0 395.52 280" height="280" width="395.52"><g><svg viewBox="0 0 395.52 280" height="280" width="395.52"><g><svg viewBox="0 0 395.52 280" height="280" width="395.52"><g><svg viewBox="0 0 395.52 280" height="280" width="395.52"><g transform="matrix(1,0,0,1,105.77037407533656,74.00336708925556)"><svg viewBox="0 0 183.97925184932686 131.99326582148888" height="131.99326582148888" width="183.97925184932686"><g><svg xmlns="http://www.w3.org/2000/svg" xmlns:xlink="http://www.w3.org/1999/xlink" version="1.1" x="0" y="0" viewBox="81.30000305175781 209.5 834.5 598.7000122070312" style="enable-background:new 0 0 1000 1000;" xml:space="preserve" height="131.99326582148888" width="183.97925184932686" class="icon-o-0" data-fill-palette-color="accent" id="o-0"><g fill="#222020" data-fill-palette-color="accent"><g fill="#222020" data-fill-palette-color="accent"><g fill="#222020" data-fill-palette-color="accent"><g fill="#222020" data-fill-palette-color="accent"><path d="M246.8 699.1L246.8 699.1c0-2-0.1-4.9 0-8.6 0.1-7.4 0.6-18.1 2.1-30.9 0.7-6.4 1.7-13.3 2.9-20.6 1.3-7.3 2.8-14.9 4.8-22.8 1.9-7.8 4.2-15.9 6.9-23.9 2.7-8 5.8-16.1 9.4-24 3.6-7.9 7.5-15.5 11.9-22.9 4.3-7.3 9.1-14.2 14.1-20.6 5-6.4 10.3-12.3 15.6-17.6 5.3-5.3 10.8-9.9 16-13.9 5.2-4 10.3-7.3 14.8-10.2 2.3-1.3 4.5-2.7 6.5-3.8 2.1-1.1 3.9-2.2 5.7-3 1.7-0.9 3.3-1.6 4.7-2.3 1.4-0.6 2.5-1.1 3.5-1.6 1.7-0.7 2.7-1.2 2.9-1.3-0.2 0.1-1.3 0.4-3 1-1 0.3-2.2 0.7-3.7 1.2-1.4 0.5-3.1 1.1-4.9 1.8-1.8 0.7-3.8 1.5-6 2.4-2.2 0.9-4.5 2-7 3.1-4.9 2.4-10.4 5.2-16.2 8.8-5.8 3.5-11.8 7.7-17.9 12.6-6.1 4.8-12.2 10.4-18.2 16.5-5.9 6.1-11.7 12.9-17.1 20.1-5.4 7.2-10.4 14.9-15.1 22.8-4.6 7.9-8.8 16.1-12.6 24.3-3.8 8.2-7.1 16.5-10 24.5-2.9 8.1-5.4 16-7.6 23.6-2.2 7.6-3.9 14.8-5.4 21.6-3 13.5-4.7 24.9-5.7 33-0.5 4-0.8 7.3-1 9.5 0 0.4-0.1 0.8-0.1 1.2h-58.3c0-166.5 152.1-301.4 339.8-301.4s339.8 134.9 339.8 301.4H246.8z" fill="#222020" data-fill-palette-color="accent"></path></g></g><g fill="#222020" data-fill-palette-color="accent"><g fill="#222020" data-fill-palette-color="accent"><path d="M892.5 764.2H104.6c-12.9 0-23.3-10.4-23.3-23.3 0-12.9 10.4-23.3 23.3-23.3h787.9c12.9 0 23.3 10.4 23.3 23.3C915.8 753.8 905.4 764.2 892.5 764.2z" fill="#222020" data-fill-palette-color="accent"></path></g></g><g fill="#222020" data-fill-palette-color="accent"><g fill="#222020" data-fill-palette-color="accent"><circle cx="496.3" cy="357.3" r="33" fill="#222020" data-fill-palette-color="accent"></circle></g></g></g><g fill="#222020" data-fill-palette-color="accent"><path d="M888.4 808.2h-459c-8.3 0-15-6.7-15-15s6.7-15 15-15h459c8.3 0 15 6.7 15 15S896.7 808.2 888.4 808.2z" fill="#222020" data-fill-palette-color="accent"></path></g><path d="M664.9 277.6c7 19.4 5.2 36-3 47.2-7.4 11.3-21.2 17.2-20.5 17.3-0.8-0.1 5.1-6.9 4.7-19.1 0.3-12.1-5.8-29.6-12.8-49-7-19.4-5.2-36 3-47.2 7.4-11.3 21.2-17.2 20.5-17.3 0.8 0.1-5.1 6.9-4.7 19.1C651.8 240.7 657.9 258.2 664.9 277.6z" fill="#222020" data-fill-palette-color="accent"></path><path d="M670.3 343.8c-7.1 19.3-5.4 35.9 2.7 47.2 7.4 11.3 21.2 17.3 20.4 17.4 0.8-0.1-5.1-7-4.6-19.2-0.2-12.1 5.9-29.6 13.1-49 7.1-19.3 5.4-35.9-2.7-47.2-7.4-11.3-21.2-17.3-20.4-17.4-0.8 0.1 5.1 7 4.6 19.2C683.6 306.9 677.4 324.4 670.3 343.8z" fill="#222020" data-fill-palette-color="accent"></path><path d="M143.2 541.2c8.7 17.4 8.8 33.2 2.3 44.7-5.8 11.4-18.1 18.5-17.4 18.5-0.7 0 4.1-7.1 2.3-18.5-1-11.4-8.7-27.2-17.4-44.7s-8.8-33.2-2.3-44.7c5.8-11.4 18.1-18.5 17.4-18.5 0.7 0-4.1 7.1-2.3 18.5C126.9 508 134.5 523.8 143.2 541.2z" fill="#222020" data-fill-palette-color="accent"></path></g></svg></g></svg></g><path d="M88.832 108.59L60.867 103.267 62.092 100.281 87.17 105.421 87.613 104.343 66.717 89.634 68.097 86.27 93.303 90.472 93.745 89.394 72.28 75.442 73.49 72.493 97.153 88.305 94.998 93.558 70.954 89.412 90.987 103.337ZM117.213 61.221L114.907 63.244 102.266 37.227 107.357 32.759 131.506 48.677 129.207 50.694 122.964 46.63 113.994 54.502ZM107.352 36.302L105.779 37.682 112.677 51.96 120.614 44.995ZM156.18 8.727V8.727C152.352 9.992 150.915 12.066 151.867 14.947V14.947C152.399 16.555 153.202 17.514 154.276 17.823 155.357 18.13 157.343 18.139 160.233 17.848 163.124 17.557 165.289 17.705 166.728 18.292 168.167 18.88 169.249 20.271 169.975 22.465V22.465C171.769 27.894 169.848 31.54 164.211 33.404V33.404C162.344 34.021 159.937 34.579 156.99 35.077V35.077L155.543 35.335 155.045 32.782C158.666 32.096 161.381 31.454 163.19 30.856V30.856C166.967 29.607 168.27 27.211 167.099 23.667V23.667C166.626 22.236 165.873 21.345 164.84 20.994 163.802 20.644 162.076 20.628 159.662 20.943V20.943C156.469 21.292 154.078 21.169 152.49 20.575 150.908 19.979 149.725 18.495 148.941 16.124V16.124C147.372 11.376 149.434 8.061 155.128 6.179V6.179C156.988 5.564 159.284 5.019 162.015 4.542V4.542L163.373 4.303 163.931 6.878C160.239 7.623 157.655 8.239 156.18 8.727ZM205.476 28.049L202.387 27.808 204.559 0 221.194 1.299 220.981 4.03 207.434 2.972 206.586 13.828 218.047 14.723 217.834 17.454 206.373 16.559ZM245.803 38.086L243.09 36.653 262.892 15.568 268.882 18.732 262.618 46.969 259.914 45.54 261.485 38.258 250.933 32.684ZM265.57 19.99L263.72 19.013 252.839 30.547 262.175 35.48ZM305.97 53.273L300.525 46.646 302.672 44.882 315.467 60.452 313.319 62.217 307.918 55.644 288.515 71.588 286.567 69.217ZM308.143 107.15L307.055 104.249 333.172 94.456 334.26 97.357ZM70.099 186.8L94.093 170.648 95.343 173.677 73.567 187.89 74.023 188.995 99.612 184.675 101.018 188.082 79.833 203.075 80.285 204.171 105.748 198.89 106.983 201.883 78.6 207.399 76.396 202.058 96.724 187.861 72.303 192.141ZM103.978 241.76L101.636 239.716 126.137 223.485 131.323 228.012 118.542 254.478 116.194 252.427 119.452 245.591 110.319 237.617ZM127.754 228.48L126.148 227.078 112.699 235.952 120.781 243.009ZM166.235 249.194V249.194C162.342 247.915 159.914 248.743 158.951 251.677V251.677C158.414 253.311 158.493 254.581 159.188 255.488 159.885 256.388 161.499 257.592 164.03 259.102 166.569 260.607 168.25 262.036 169.07 263.389 169.893 264.736 169.939 266.523 169.207 268.75V268.75C167.392 274.277 163.617 276.099 157.881 274.215V274.215C155.988 273.594 153.689 272.594 150.982 271.215V271.215L149.643 270.566 150.776 268.17C154.15 269.795 156.758 270.91 158.6 271.516V271.516C162.436 272.775 164.946 271.604 166.13 268.001V268.001C166.606 266.55 166.529 265.368 165.9 264.455 165.263 263.54 163.863 262.483 161.699 261.283V261.283C158.875 259.642 156.998 258.1 156.068 256.655 155.129 255.214 155.057 253.285 155.85 250.869V250.869C157.434 246.048 161.118 244.588 166.904 246.488V246.488C168.797 247.11 171.005 248.048 173.529 249.304V249.304L174.779 249.934 173.684 252.374C170.22 250.747 167.737 249.687 166.235 249.194ZM207.203 279.75L204.055 280 201.811 251.748 218.723 250.405 218.944 253.185 205.18 254.278 206.055 265.301 217.694 264.377 217.914 267.148 206.275 268.072ZM255.276 267.438L252.529 268.892 246.148 240.204 252.232 236.984 272.366 258.393 269.61 259.852 264.394 254.362 253.679 260.033ZM251.391 240.483L249.506 241.481 252.977 257.215 262.459 252.197ZM282.542 215.04L277.003 221.783 274.817 219.987 287.818 204.161 290.004 205.957 284.521 212.631 304.234 228.825 302.255 231.234ZM327.124 187.678L326.011 190.633 299.49 180.64 300.603 177.685ZM61.96 143.782C61.96 137.803 66.807 132.956 72.786 132.956 78.765 132.956 83.612 137.803 83.612 143.782 83.612 149.761 78.765 154.608 72.786 154.608 66.807 154.608 61.96 149.761 61.96 143.782ZM313.001 143.782C313.001 137.803 317.848 132.956 323.827 132.956 329.806 132.956 334.653 137.803 334.653 143.782 334.653 149.761 329.806 154.608 323.827 154.608 317.848 154.608 313.001 149.761 313.001 143.782Z" fill="#222020" data-fill-palette-color="primary"></path></svg></g></svg></g></svg></g></svg></g><defs></defs></svg><rect width="395.52" height="280" fill="none" stroke="none" visibility="hidden"></rect></g></svg></g></svg>