<svg width="32" height="32" viewBox="0 0 32 32" fill="none" xmlns="http://www.w3.org/2000/svg">
<path d="M16.0001 26.6667C18.8291 26.6667 21.5422 25.5429 23.5426 23.5425C25.5429 21.5421 26.6667 18.829 26.6667 16C26.6667 13.171 25.5429 10.4579 23.5426 8.45755C21.5422 6.45716 18.8291 5.33335 16.0001 5.33335C13.1711 5.33335 10.458 6.45716 8.45761 8.45755C6.45722 10.4579 5.33341 13.171 5.33341 16C5.33341 18.829 6.45722 21.5421 8.45761 23.5425C10.458 25.5429 13.1711 26.6667 16.0001 26.6667ZM16.0001 2.66669C17.751 2.66669 19.4849 3.01156 21.1025 3.68163C22.7202 4.35169 24.1901 5.33382 25.4282 6.57193C26.6663 7.81004 27.6484 9.2799 28.3185 10.8976C28.9885 12.5152 29.3334 14.2491 29.3334 16C29.3334 19.5362 27.9287 22.9276 25.4282 25.4281C22.9277 27.9286 19.5363 29.3334 16.0001 29.3334C8.62675 29.3334 2.66675 23.3334 2.66675 16C2.66675 12.4638 4.07151 9.07242 6.57199 6.57193C9.07248 4.07144 12.4639 2.66669 16.0001 2.66669ZM16.6667 9.33335V16.3334L22.6667 19.8934L21.6667 21.5334L14.6667 17.3334V9.33335H16.6667Z" fill="#222020"/>
</svg>
