<?xml version="1.0" standalone="no"?>
<!DOCTYPE svg PUBLIC "-//W3C//DTD SVG 20010904//EN"
 "http://www.w3.org/TR/2001/REC-SVG-20010904/DTD/svg10.dtd">
<svg version="1.0" xmlns="http://www.w3.org/2000/svg"
 width="320.000000pt" height="320.000000pt" viewBox="0 0 320.000000 320.000000"
 preserveAspectRatio="xMidYMid meet">
<metadata>
Created by potrace 1.16, written by Peter Selinger 2001-2019
</metadata>
<g transform="translate(0.000000,320.000000) scale(0.100000,-0.100000)"
fill="#000000" stroke="none">
<path d="M0 1600 l0 -1600 1600 0 1600 0 0 1600 0 1600 -1600 0 -1600 0 0
-1600z m1969 -106 c51 -39 57 -40 79 -16 10 9 14 13 10 8 -12 -15 -10 -24 5
-23 61 2 73 -12 83 -92 5 -41 3 -52 -10 -57 -11 -4 -14 -16 -11 -44 4 -42 -9
-51 -70 -49 -30 2 -30 2 5 9 34 7 34 7 -12 9 -45 1 -64 -11 -35 -22 6 -3 -3
-6 -21 -6 -45 -1 -82 36 -82 82 0 44 8 51 37 32 20 -13 23 -13 23 -1 0 8 -4
26 -10 40 -6 17 -6 27 1 32 8 4 7 9 -1 14 -7 4 -13 19 -13 34 -1 14 -5 26 -9
26 -5 0 -8 5 -8 12 0 7 -12 23 -27 36 l-28 24 25 -7 c14 -4 45 -22 69 -41z
m-339 -104 c0 -5 5 -10 11 -10 5 0 7 5 4 10 -3 6 -2 10 4 10 19 0 21 -19 4
-29 -10 -6 -13 -11 -6 -11 11 0 11 -15 -3 -126 -5 -39 -8 -42 -40 -49 -19 -3
-38 -13 -41 -21 -6 -16 -39 -19 -48 -5 -3 5 3 16 12 23 21 15 27 49 7 41 -7
-2 -12 -10 -10 -16 1 -7 1 -9 -1 -4 -3 4 -10 4 -16 1 -7 -3 4 8 23 25 19 17
39 31 44 31 4 0 6 6 3 14 -3 8 -2 16 3 18 4 2 10 21 11 43 3 38 16 64 32 65 4
0 7 -4 7 -10z"/>
</g>
</svg>
